<?xml version="1.0" encoding="utf-8"?>
<!-- Generator: Adobe Illustrator 26.4.0, SVG Export Plug-In . SVG Version: 6.00 Build 0)  -->
<svg version="1.1" id="Layer_1" xmlns="http://www.w3.org/2000/svg" xmlns:xlink="http://www.w3.org/1999/xlink" x="0px" y="0px"
	 viewBox="0 0 1080 1080" style="enable-background:new 0 0 1080 1080;" xml:space="preserve">
<style type="text/css">
	.st0{fill:#A2A2A2;}
</style>
<g>
	<path class="st0" d="M813.3,0c13.1,5.2,17.9,14.9,17.8,28.8c-0.4,50.6-0.1,101.2-0.2,151.9c0,21-7.5,28.1-28.8,28.4
		c-35.8,0.4-71.7,0.2-107.5,1.7c-19.4,0.8-38.2,6.5-47.7,25.6c-4.6,9.2-7.9,20-8.1,30.1c-0.9,40-0.4,80.1-0.4,121.8
		c3.7,0,108.2,0,156.7,0c21.7,0,29.2,7.5,29.2,29.1c0,54.8,0,109.7-0.1,164.5c0,20.4-7.6,27.9-28.1,27.9c-48.5,0-153.1,0-158.2,0
		c0,5.1,0,296.6,0,438.3c0,25-7,31.9-31.9,31.9c-55.5,0-111.1,0-166.6,0c-21.9,0-29.3-7.2-29.3-29c0-142.4,0-435.4,0-441.2
		c-4.5,0-94.2,0-135.3,0c-19.7,0-27.5-7.6-27.5-27.4c-0.1-55.5-0.1-111.1,0-166.6c0-19.5,8.1-27.4,27.6-27.5
		c40.8-0.1,129.9,0,135.2,0c0-4.6-1-99.3,0.8-142.8c2.7-62,21.2-118.7,63.2-165.9C509.4,40,554,17.2,605.3,6.5
		C617.6,4,630.1,2.1,642.5,0C699.4,0,756.4,0,813.3,0z"/>
</g>
</svg>
