<?xml version="1.0" encoding="utf-8"?>
<!-- Generator: Adobe Illustrator 26.4.0, SVG Export Plug-In . SVG Version: 6.00 Build 0)  -->
<svg version="1.1" id="Layer_1" xmlns="http://www.w3.org/2000/svg" xmlns:xlink="http://www.w3.org/1999/xlink" x="0px" y="0px"
	 viewBox="0 0 1080 420.5" style="enable-background:new 0 0 1080 420.5;" xml:space="preserve">
<style type="text/css">
	.st0{fill:#FFFFFF;}
</style>
<polygon class="st0" points="114,231.1 114,386.2 145.6,386.2 145.6,199.4 "/>
<polygon class="st0" points="607,295 607,386.2 638.6,386.2 638.6,326.6 "/>
<polygon class="st0" points="193.5,90.5 193.5,45.8 142.9,45.8 142.9,141.1 "/>
<polygon class="st0" points="802.8,143.9 638.6,265.6 661.2,288.2 802.8,183.3 997,327 1050.1,327 "/>
<polygon class="st0" points="440.4,216.7 257.9,34.3 29.9,262.3 74.6,262.3 257.9,79 418,239.1 "/>
<polygon class="st0" points="515,150.2 326.8,338.5 371.5,338.5 515,194.9 656,335.9 700.8,335.9 "/>
</svg>
