<?xml version="1.0" encoding="utf-8"?>
<!-- Generator: Adobe Illustrator 26.4.0, SVG Export Plug-In . SVG Version: 6.00 Build 0)  -->
<svg version="1.1" id="Layer_1" xmlns="http://www.w3.org/2000/svg" xmlns:xlink="http://www.w3.org/1999/xlink" x="0px" y="0px"
	 viewBox="0 0 1080 1080" style="enable-background:new 0 0 1080 1080;" xml:space="preserve">
<style type="text/css">
	.st0{fill:#A2A2A2;}
</style>
<g>
	<path class="st0" d="M275.3-1C451.2-1,627-1,802.9-1c3.4,0.6,6.8,1.5,10.2,1.9c29.5,3.2,58.4,9.8,85.2,22.5
		C1014.4,78.2,1077,170,1078.8,298.6c2.2,160.3,0.7,320.7,0.5,481.1c-0.1,62.2-16.8,119.7-52.9,170.4
		c-61.2,85.9-145.5,129-251,129.2c-157.6,0.4-315.1,0.3-472.7-0.1c-20.3-0.1-41.1-1.1-60.8-5.5c-122.3-27-200.6-101.4-234.2-222.2
		c-4.4-15.8-6-32.4-8.9-48.6c0-175.9,0-351.7,0-527.6c1.8-11,2.9-22.2,5.4-33.1C31.8,119.9,105.9,41.4,226.9,7.8
		C242.6,3.4,259.2,1.8,275.3-1z M983.6,540.3c0-78.4,0.1-156.8,0-235.2c0-24.7-2.5-49.1-10.9-72.6C942.2,146.9,868.5,95,775.7,94.8
		c-157.5-0.3-315.1-0.5-472.6,0.4c-23.5,0.1-48.1,3.4-70.3,10.9C146.4,135.2,94.9,210,94.7,303.4c-0.2,157.2-0.5,314.4,0.4,471.5
		c0.1,23.5,3.3,48.1,10.8,70.3c28.8,86,103.4,138,196.1,138.2c158.2,0.4,316.5,0.3,474.7,0c70.4-0.1,127.3-28.3,169.1-85.3
		c26.9-36.7,37.8-78.6,37.8-123.8C983.5,696.4,983.6,618.3,983.6,540.3z"/>
	<path class="st0" d="M539,817.6c-153.1-0.2-278.8-126.1-278.3-278.8c0.5-153.3,126.6-278.9,279.1-278
		c153.1,0.8,277.6,125.6,277.8,278.3C817.7,691.9,691.8,817.8,539,817.6z M721.5,539.6c0.6-100.2-81.1-182.2-182-182.8
		c-100.2-0.6-182.2,81-182.8,182c-0.6,100.2,81,182.2,182,182.8C638.9,722.1,720.9,640.5,721.5,539.6z"/>
	<path class="st0" d="M829.1,179.8c38.7-0.1,70.9,32.2,70.4,70.4c-0.5,38.3-32,69.6-70.2,69.6c-38.6,0-70.9-32.3-70.4-70.5
		C759.4,211,790.8,179.9,829.1,179.8z"/>
</g>
</svg>
